<?xml version="1.0" encoding="UTF-8" standalone="no"?>
<!DOCTYPE svg PUBLIC "-//W3C//DTD SVG 1.1//EN"
 "http://www.w3.org/Graphics/SVG/1.1/DTD/svg11.dtd">
<!-- Generated by graphviz version 2.43.0 (0)
 -->
<!-- Title: %3 Pages: 1 -->
<svg width="595pt" height="45pt"
 viewBox="0.00 0.00 595.00 45.00" xmlns="http://www.w3.org/2000/svg" xmlns:xlink="http://www.w3.org/1999/xlink">
<g id="graph0" class="graph" transform="scale(1 1) rotate(0) translate(4 41)">
<title>%3</title>
<polygon fill="white" stroke="transparent" points="-4,4 -4,-41 591,-41 591,4 -4,4"/>
<!-- Client -->
<g id="node1" class="node">
<title>Client</title>
<polygon fill="none" stroke="black" points="59,-37 0,-37 0,-1 59,-1 59,-37"/>
<text text-anchor="middle" x="29.5" y="-15.3" font-family="Times,serif" font-size="14.00">Client</text>
</g>
<!-- Matrix -->
<g id="node2" class="node">
<title>Matrix</title>
<polygon fill="none" stroke="black" points="396,-37 243,-37 243,-1 396,-1 396,-37"/>
<text text-anchor="middle" x="319.5" y="-15.3" font-family="Times,serif" font-size="14.00">PolymorphicMatrix</text>
</g>
<!-- Client&#45;&gt;Matrix -->
<g id="edge1" class="edge">
<title>Client&#45;&gt;Matrix</title>
<path fill="none" stroke="black" d="M59.17,-19C99.31,-19 173.98,-19 232.92,-19"/>
<polygon fill="black" stroke="black" points="242.98,-19 232.98,-23.5 237.98,-19 232.98,-19 232.98,-19 232.98,-19 237.98,-19 232.98,-14.5 242.98,-19 242.98,-19"/>
<text text-anchor="middle" x="151" y="-22.8" font-family="Times,serif" font-size="14.00">apply(a, b, behavior)</text>
</g>
<!-- Matrix&#45;&gt;Client -->
<g id="edge4" class="edge">
<title>Matrix&#45;&gt;Client</title>
<path fill="none" stroke="black" stroke-dasharray="5,2" d="M242.59,-3.57C232.19,-1.46 225,0 225,0 225,0 77,0 77,0 77,0 73.6,-1.39 68.65,-3.41"/>
<polygon fill="black" stroke="black" points="59.15,-7.29 66.71,0.66 63.78,-5.4 68.41,-3.51 68.41,-3.51 68.41,-3.51 63.78,-5.4 70.11,-7.67 59.15,-7.29 59.15,-7.29"/>
<text text-anchor="middle" x="151" y="-3.8" font-family="Times,serif" font-size="14.00">return result</text>
</g>
<!-- Action -->
<g id="node3" class="node">
<title>Action</title>
<polygon fill="none" stroke="black" points="587,-37 525,-37 525,-1 587,-1 587,-37"/>
<text text-anchor="middle" x="556" y="-15.3" font-family="Times,serif" font-size="14.00">Action</text>
</g>
<!-- Matrix&#45;&gt;Action -->
<g id="edge2" class="edge">
<title>Matrix&#45;&gt;Action</title>
<path fill="none" stroke="black" d="M396.31,-19C435.8,-19 482.47,-19 514.94,-19"/>
<polygon fill="black" stroke="black" points="524.96,-19 514.96,-23.5 519.96,-19 514.96,-19 514.96,-19 514.96,-19 519.96,-19 514.96,-14.5 524.96,-19 524.96,-19"/>
<text text-anchor="middle" x="460.5" y="-22.8" font-family="Times,serif" font-size="14.00">execute(a, b)</text>
</g>
<!-- Action&#45;&gt;Matrix -->
<g id="edge3" class="edge">
<title>Action&#45;&gt;Matrix</title>
<path fill="none" stroke="black" stroke-dasharray="5,2" d="M524.87,-7.07C515.23,-3.26 507,0 507,0 507,0 414,0 414,0 414,0 411.19,-0.57 406.55,-1.51"/>
<polygon fill="black" stroke="black" points="396.41,-3.57 405.32,2.83 401.31,-2.58 406.21,-1.58 406.21,-1.58 406.21,-1.58 401.31,-2.58 407.11,-5.99 396.41,-3.57 396.41,-3.57"/>
<text text-anchor="middle" x="460.5" y="-3.8" font-family="Times,serif" font-size="14.00">return result</text>
</g>
</g>
</svg>
